<svg width="80" height="80" viewBox="0 0 80 80" fill="none" xmlns="http://www.w3.org/2000/svg">
<rect width="80" height="80" fill="url(#paint0_radial)"/>
<g clip-path="url(#clip0)">
<path d="M30.4166 31.7115C30.9398 31.4459 31.1487 30.8064 30.8831 30.2833C30.6175 29.7602 29.978 29.5513 29.4549 29.8168C22.8851 33.1514 18.2297 39.4633 17.0015 46.701C16.9033 47.2795 17.2927 47.828 17.8713 47.9262C17.9314 47.9364 17.9912 47.9414 18.0503 47.9414C18.559 47.9414 19.0086 47.5749 19.0966 47.0565C20.2125 40.4795 24.4443 34.743 30.4166 31.7115Z" fill="#72F34B"/>
<path d="M40 27.3024C38.4787 27.3024 36.9567 27.45 35.4769 27.7409C34.9011 27.854 34.5261 28.4125 34.6393 28.9883C34.7389 29.4949 35.1831 29.846 35.6807 29.846C35.7487 29.846 35.8175 29.8394 35.8867 29.8259C37.232 29.5614 38.6158 29.4273 40 29.4273C40.5867 29.4273 41.0625 28.9515 41.0625 28.3648C41.0625 27.7783 40.5867 27.3024 40 27.3024Z" fill="#72F34B"/>
<path d="M58.8563 31.5144C53.8197 26.4778 47.1231 23.704 40.0002 23.704C32.8772 23.704 26.1807 26.4776 21.1441 31.5144C16.1073 36.5511 13.3335 43.2475 13.3335 50.3705C13.3335 50.9572 13.8092 51.4329 14.3959 51.4329H34.0262C34.5996 54.2055 37.0602 56.2962 40.0002 56.2962C42.9401 56.2962 45.4007 54.2055 45.9741 51.4329H65.6044C66.1911 51.4329 66.6668 50.9572 66.6668 50.3705C66.6668 43.2475 63.8931 36.5511 58.8563 31.5144ZM43.7775 51.4329C43.256 53.021 41.7603 54.1713 40.0002 54.1713C38.2401 54.1713 36.7442 53.021 36.2228 51.4329C36.0949 51.0432 36.0247 50.6277 36.0247 50.1958C36.0247 49.8905 36.0604 49.5937 36.1258 49.3081C36.5304 47.5422 38.1133 46.2204 40.0002 46.2204C41.887 46.2204 43.4699 47.5422 43.8745 49.3081C43.9399 49.5938 43.9756 49.8906 43.9756 50.1958C43.9756 50.6277 43.9055 51.0434 43.7775 51.4329ZM46.0351 49.308V49.3081C45.9428 48.6776 45.753 48.0785 45.4828 47.5257L58.0348 38.4061C58.5095 38.0613 58.6147 37.3968 58.2698 36.9221C57.925 36.4473 57.2604 36.3422 56.7858 36.6871L44.2322 45.8079C43.1346 44.7485 41.6426 44.0955 40.0002 44.0955C36.938 44.0955 34.3964 46.3636 33.9652 49.308H15.4811C16.0394 36.2665 26.8237 25.8286 40.0002 25.8286C53.1766 25.8286 63.961 36.2665 64.5193 49.308H46.0351Z" fill="#72F34B"/>
<path d="M40.0002 31.141C39.4135 31.141 38.9377 31.6167 38.9377 32.2034V35.9218C38.9377 36.5085 39.4135 36.9843 40.0002 36.9843C40.5868 36.9843 41.0626 36.5085 41.0626 35.9218V32.2034C41.0626 31.6168 40.5868 31.141 40.0002 31.141Z" fill="#72F34B"/>
<path d="M35.4502 32.7559C35.2688 32.1979 34.6699 31.8927 34.1113 32.0738C33.5533 32.2552 33.2479 32.8546 33.4293 33.4127L34.0153 35.216C34.1611 35.665 34.5776 35.9503 35.0255 35.9503C35.1342 35.9503 35.2449 35.9335 35.3541 35.8981C35.9121 35.7167 36.2176 35.1173 36.0362 34.5592L35.4502 32.7559Z" fill="#72F34B"/>
<path d="M30.2845 35.0152C29.9397 34.5404 29.2751 34.4352 28.8005 34.7802C28.3258 35.1251 28.2207 35.7895 28.5655 36.2642L30.7511 39.2724C30.9589 39.5585 31.283 39.7104 31.6115 39.7104C31.828 39.7104 32.0466 39.6445 32.2351 39.5074C32.7098 39.1625 32.815 38.4981 32.4701 38.0234L30.2845 35.0152Z" fill="#72F34B"/>
<path d="M27.7276 39.9665L26.0681 38.7608C25.5936 38.4159 24.929 38.5209 24.5841 38.9958C24.2392 39.4705 24.3444 40.1349 24.8191 40.4798L26.4786 41.6855C26.6672 41.8226 26.8856 41.8886 27.1023 41.8886C27.4308 41.8886 27.7548 41.7366 27.9626 41.4505C28.3076 40.9758 28.2023 40.3115 27.7276 39.9665Z" fill="#72F34B"/>
<path d="M26.7535 44.7742L23.217 43.6251C22.6586 43.444 22.0594 43.7491 21.8782 44.3072C21.6969 44.8653 22.0023 45.4647 22.5603 45.646L26.0967 46.7951C26.2058 46.8305 26.3164 46.8474 26.4253 46.8474C26.8731 46.8474 27.2897 46.5619 27.4356 46.1131C27.6168 45.555 27.3114 44.9556 26.7535 44.7742Z" fill="#72F34B"/>
<path d="M56.7835 43.625L53.247 44.7741C52.689 44.9554 52.3837 45.5548 52.565 46.1129C52.7108 46.5619 53.1273 46.8473 53.5752 46.8473C53.6839 46.8473 53.7946 46.8304 53.9038 46.795L57.4403 45.6459C57.9983 45.4645 58.3036 44.8651 58.1224 44.307C57.941 43.7491 57.342 43.4437 56.7835 43.625Z" fill="#72F34B"/>
<path d="M51.2002 34.7797C50.7256 34.435 50.0612 34.5398 49.7162 35.0147L47.5306 38.0229C47.1858 38.4976 47.2909 39.1621 47.7656 39.5069C47.9542 39.644 48.1726 39.71 48.3893 39.71C48.7178 39.71 49.0418 39.558 49.2496 39.2719L51.4352 36.2637C51.7801 35.789 51.6749 35.1245 51.2002 34.7797Z" fill="#72F34B"/>
<path d="M45.8656 32.1444C45.3078 31.9635 44.7082 32.2684 44.5268 32.8266L43.9824 34.502C43.8012 35.06 44.1065 35.6594 44.6646 35.8408C44.7736 35.8761 44.8842 35.893 44.9931 35.893C45.4409 35.893 45.8575 35.6076 46.0034 35.1586L46.5477 33.4831C46.729 32.9252 46.4237 32.3259 45.8656 32.1444Z" fill="#72F34B"/>
</g>
<defs>
<radialGradient id="paint0_radial" cx="0" cy="0" r="1" gradientUnits="userSpaceOnUse" gradientTransform="translate(40 40) rotate(90) scale(40)">
<stop stop-color="#1C4612"/>
<stop offset="1" stop-color="#1C4612" stop-opacity="0"/>
</radialGradient>
<clipPath id="clip0">
<rect width="53.3333" height="53.3333" fill="white" transform="translate(13.3335 13.3336)"/>
</clipPath>
</defs>
</svg>
