<svg width="106" height="106" viewBox="0 0 106 106" fill="none" xmlns="http://www.w3.org/2000/svg">
<rect width="106" height="106" fill="url(#paint0_radial)"/>
<path d="M84.6047 41.5352C73.5955 27.419 74.065 27.7727 73.4772 27.715L56.2438 25.3938C51.8996 24.8086 48.9488 25.5692 47.4421 25.7054C46.9364 25.7735 46.5817 26.2387 46.6497 26.7444C46.7178 27.2501 47.1836 27.6055 47.6886 27.5368C49.2168 27.3967 51.9574 26.6813 55.9971 27.2251L67.8314 28.8191C66.9457 28.9996 53.8861 31.6608 52.9998 31.8414L38.1687 28.8191L43.2952 28.1285C43.8009 28.0605 44.1555 27.5953 44.0876 27.0896C44.0195 26.5838 43.5533 26.229 43.0486 26.2972L32.5236 27.7148C32.5221 27.7149 32.5206 27.7152 32.5191 27.7154L32.5052 27.7173C32.491 27.7192 32.4772 27.7224 32.4632 27.725C32.4541 27.7267 32.4448 27.7279 32.4359 27.7299C32.4283 27.7315 32.4207 27.7332 32.4133 27.7349C32.4027 27.7375 32.3923 27.7406 32.3818 27.7435C32.3657 27.7479 32.3495 27.7523 32.3336 27.7576C32.3271 27.7599 32.3208 27.7626 32.3143 27.765C32.3114 27.766 32.3085 27.7671 32.3058 27.7682C32.2966 27.7717 32.2871 27.7749 32.278 27.7785C32.2613 27.7853 32.2452 27.7929 32.229 27.8007C32.222 27.8041 32.215 27.8072 32.2081 27.8107C32.2002 27.8146 32.1927 27.8185 32.1851 27.8226C32.1777 27.8266 32.1708 27.831 32.1635 27.8354C31.7622 28.0692 31.9581 28.0857 21.3955 41.5351C21.1759 41.8168 21.1381 42.1998 21.2988 42.5189C21.6707 43.2567 20.6816 41.8003 41.0719 68.8658C41.3792 69.2733 41.9586 69.3543 42.366 69.0469C42.7733 68.7396 42.8543 68.1603 42.5471 67.7528L24.6374 44.0152L39.1091 48.5735C39.4562 49.4889 50.0564 77.4476 50.253 77.9663L45.1535 71.2075C44.8462 70.8 44.2669 70.719 43.8594 71.0264C43.4519 71.3337 43.3711 71.913 43.6783 72.3205C49.018 79.3963 49.5682 80.1296 49.6062 80.1724C50.2808 80.9328 51.2138 81.4136 52.1062 81.5642C52.2383 81.5867 53.7864 81.5862 53.9158 81.561C55.041 81.3425 55.9914 80.7068 56.4401 80.1159L74.4758 56.211C74.783 55.8035 74.702 55.2242 74.2947 54.9169C73.887 54.6098 73.3081 54.6908 73.0006 55.098L55.7467 77.9668C56.2978 76.5131 66.4857 49.6419 66.8908 48.5736L81.3626 44.0153L75.5979 51.6558C75.2907 52.0632 75.3716 52.6425 75.779 52.9499C76.1866 53.2572 76.7658 53.1762 77.0731 52.7687C84.8122 42.5016 84.3952 43.1239 84.7006 42.5204C84.8621 42.201 84.8247 41.8173 84.6047 41.5352ZM53 34.1861L64.1472 46.9029H41.8529L53 34.1861ZM23.5764 41.7436L32.3418 30.503L38.2846 46.3767L23.5764 41.7436ZM34.0788 29.8715C35.9083 30.2442 49.0265 32.9177 51.2563 33.3721L40.1378 46.0561L34.0788 29.8715ZM53.1021 79.7301H52.8981L41.1526 48.7507H64.8475L53.1021 79.7301ZM65.8622 46.056L54.7436 33.3721C56.2227 33.0706 69.6468 30.335 71.9212 29.8715L65.8622 46.056ZM67.7154 46.3765L73.6581 30.5027L82.4237 41.7435L67.7154 46.3765Z" fill="#72F34B"/>
<defs>
<radialGradient id="paint0_radial" cx="0" cy="0" r="1" gradientUnits="userSpaceOnUse" gradientTransform="translate(53 53) rotate(90) scale(53)">
<stop stop-color="#1C4612"/>
<stop offset="1" stop-color="#1C4612" stop-opacity="0"/>
</radialGradient>
</defs>
</svg>
