<svg width="80" height="80" viewBox="0 0 80 80" fill="none" xmlns="http://www.w3.org/2000/svg">
<rect width="80" height="80" fill="url(#paint0_radial)"/>
<path d="M66.3111 35.3088C66.3148 34.7989 66.087 34.3209 65.6869 33.9977L57.9694 27.771C57.4655 27.3304 56.7453 27.2225 56.1257 27.4972C55.5054 27.7722 55.1202 28.3591 55.1201 29.029L55.1202 31.7635L32.852 31.7635C32.2635 31.7634 31.7091 31.9936 31.2911 32.4117C30.8733 32.8296 30.6431 33.3839 30.6431 33.9722L30.6431 36.6228C30.6431 37.2317 30.8908 37.7839 31.2907 38.1839C31.6907 38.5838 32.2429 38.8315 32.8518 38.8315L40.4516 38.8315C40.9395 38.8315 41.3351 38.436 41.3352 37.948C41.3351 37.4601 40.9395 37.0646 40.4516 37.0644L32.8518 37.0644C32.695 37.0645 32.5896 36.9825 32.5408 36.9337C32.4921 36.885 32.4102 36.7796 32.4102 36.6228L32.4102 33.9722C32.4102 33.8151 32.4921 33.7099 32.5407 33.6611C32.5894 33.6123 32.6947 33.5306 32.8519 33.5306L56.0037 33.5305C56.238 33.5304 56.4627 33.4374 56.6284 33.2717C56.7941 33.1061 56.8871 32.8813 56.8871 32.647L56.8871 29.1683L64.4839 35.2976L56.8871 41.4268L56.8871 37.9479C56.8871 37.7137 56.7941 37.4889 56.6284 37.3232C56.4627 37.1575 56.2379 37.0644 56.0037 37.0644H48.4031C47.9152 37.0644 47.5196 37.46 47.5196 37.948C47.5196 38.4358 47.9152 38.8314 48.4031 38.8315L55.1201 38.8315V41.5657C55.1198 42.2134 55.4901 42.7926 56.0857 43.0775C56.6941 43.3683 57.3961 43.2871 57.9173 42.866L65.6729 36.6086C66.0749 36.2908 66.3073 35.8174 66.3111 35.3088Z" fill="#72F34B"/>
<path d="M49.3573 43.9449C49.3574 43.3566 49.1272 42.8024 48.7093 42.3844C48.7093 42.3844 48.7092 42.3844 48.7092 42.3843C48.2912 41.9664 47.737 41.7362 47.1486 41.7362L24.8803 41.7363L24.8804 39.0018C24.8803 38.3321 24.4951 37.745 23.8749 37.47C23.2552 37.1953 22.5349 37.3032 22.0311 37.7439L14.3132 43.9708C13.913 44.294 13.6856 44.7718 13.6894 45.2817C13.6926 45.7236 13.8686 46.139 14.1785 46.4489C14.2251 46.4956 14.2749 46.5398 14.3275 46.5814L22.0827 52.8385C22.6044 53.2599 23.3063 53.341 23.9146 53.0504C24.5106 52.7654 24.8806 52.1861 24.8804 51.5389L24.8804 48.8042L47.1487 48.8043C48.3666 48.8042 49.3573 47.8135 49.3574 46.5956L49.3573 43.9449ZM47.1485 47.0372L23.9968 47.0372C23.7625 47.0373 23.5378 47.1303 23.3721 47.296C23.2064 47.4616 23.1134 47.6863 23.1134 47.9207L23.1134 51.3996L15.5166 45.2703L23.1133 39.1411L23.1132 42.6198C23.1132 42.854 23.2063 43.0788 23.372 43.2445C23.5377 43.4102 23.7625 43.5032 23.9967 43.5032L47.1485 43.5032C47.3056 43.5031 47.4108 43.585 47.4596 43.6338C47.5084 43.6825 47.5902 43.7878 47.5902 43.9449L47.5902 46.5955C47.5902 46.7524 47.5083 46.8576 47.4595 46.9064C47.4107 46.9552 47.3055 47.0372 47.1485 47.0372Z" fill="#72F34B"/>
<path d="M44.4261 38.8319L44.4267 38.8319C44.9146 38.8319 45.3099 38.4364 45.3099 37.9484C45.3099 37.4605 44.9142 37.065 44.4262 37.0649C43.9383 37.0649 43.5427 37.4605 43.5427 37.9485C43.5427 38.1925 43.6415 38.4134 43.8014 38.5732C43.9613 38.7331 44.1821 38.8319 44.4261 38.8319Z" fill="#72F34B"/>
<defs>
<radialGradient id="paint0_radial" cx="0" cy="0" r="1" gradientUnits="userSpaceOnUse" gradientTransform="translate(40 40) rotate(90) scale(40)">
<stop stop-color="#1C4612"/>
<stop offset="1" stop-color="#1C4612" stop-opacity="0"/>
</radialGradient>
</defs>
</svg>
