<svg width="106" height="106" viewBox="0 0 106 106" fill="none" xmlns="http://www.w3.org/2000/svg">
<rect width="106" height="106" fill="url(#paint0_radial)"/>
<g clip-path="url(#clip0)">
<path d="M84.0983 70.0338L83.0684 67.2624C82.8294 66.6196 82.1147 66.292 81.4715 66.5309C80.8285 66.7699 80.501 67.4848 80.74 68.1278L81.7698 70.8992C82.7492 73.5344 82.3905 76.3698 80.7857 78.6782C79.1809 80.9866 76.6481 82.3105 73.8366 82.3105C70.88 82.3105 68.1877 80.8085 66.6347 78.2925L65.3771 76.255C65.8334 75.4804 66.0963 74.5788 66.0963 73.6165C66.0963 70.7402 63.7562 68.4001 60.8799 68.4001C58.4315 68.4001 56.3729 70.0961 55.8141 72.3745H50.1851C49.6264 70.0961 47.5676 68.4001 45.1194 68.4001C42.2431 68.4001 39.903 70.7402 39.903 73.6165C39.903 74.5787 40.1659 75.4803 40.6221 76.2549L39.3645 78.2925C37.8115 80.8085 35.1192 82.3105 32.1626 82.3105C29.3512 82.3105 26.8184 80.9866 25.2136 78.6782C23.6088 76.3698 23.25 73.5344 24.2294 70.8992L30.1837 54.8767C31.7053 50.7823 35.6624 48.0313 40.0304 48.0313H65.9691C70.3371 48.0313 74.2942 50.7822 75.8158 54.8767L76.8458 57.6485C77.0848 58.2915 77.7998 58.6191 78.4426 58.38C79.0856 58.1411 79.4131 57.4262 79.1742 56.7832L78.1442 54.0114C76.2628 48.9488 71.37 45.5473 65.9691 45.5473H63.0749C62.4844 42.1653 59.5291 39.5857 55.9807 39.5857H54.2418V38.6542C54.2418 34.9903 51.261 32.0095 47.5971 32.0095H34.5561C32.2618 32.0095 30.3954 30.143 30.3954 27.8488C30.3954 25.5546 32.2618 23.6881 34.5561 23.6881H53.0155C53.7015 23.6881 54.2575 23.1321 54.2575 22.4461C54.2575 21.7601 53.7015 21.2041 53.0155 21.2041H34.5561C30.8922 21.2041 27.9114 24.1849 27.9114 27.8488C27.9114 31.5127 30.8922 34.4935 34.5561 34.4935H47.5971C49.8913 34.4935 51.7578 36.36 51.7578 38.6542V39.5857H50.019C46.4706 39.5857 43.5152 42.1653 42.9248 45.5473H40.0304C34.6296 45.5473 29.7367 48.9488 27.8553 54.0114L21.9011 70.0338C20.6342 73.4426 21.0982 77.1101 23.1741 80.0962C25.2499 83.0821 28.5261 84.7947 32.1628 84.7947C35.9872 84.7947 39.4697 82.8517 41.4784 79.5974L42.4169 78.0769C43.2056 78.5567 44.1309 78.8332 45.1196 78.8332C47.568 78.8332 49.6266 77.1372 50.1854 74.8588H55.8143C56.373 77.1372 58.4318 78.8332 60.88 78.8332C61.8686 78.8332 62.7938 78.5567 63.5825 78.077L64.5209 79.5974C66.5298 82.8518 70.0122 84.7947 73.8366 84.7947C77.4731 84.7947 80.7494 83.0821 82.8252 80.0962C84.9012 77.1101 85.3652 73.4426 84.0983 70.0338ZM50.019 42.0697H55.9807C58.1535 42.0697 59.9879 43.5455 60.5344 45.5473H45.4652C46.0117 43.5456 47.8462 42.0697 50.019 42.0697ZM45.1195 76.349C43.6129 76.349 42.3871 75.1233 42.3871 73.6166C42.3871 72.11 43.6129 70.8842 45.1195 70.8842C46.6262 70.8842 47.8519 72.11 47.8519 73.6166C47.8519 75.1232 46.6262 76.349 45.1195 76.349ZM58.1477 73.6166C58.1477 72.11 59.3735 70.8842 60.8801 70.8842C62.3868 70.8842 63.6125 72.11 63.6125 73.6166C63.6125 75.1233 62.3868 76.349 60.8801 76.349C59.3735 76.349 58.1477 75.1232 58.1477 73.6166Z" fill="#72F34B"/>
<path d="M64.5305 59.3135C64.5305 61.505 66.3134 63.2879 68.5049 63.2879C70.6964 63.2879 72.4793 61.505 72.4793 59.3135C72.4793 57.122 70.6964 55.3391 68.5049 55.3391C66.3134 55.3391 64.5305 57.1221 64.5305 59.3135ZM69.9953 59.3135C69.9953 60.1353 69.3267 60.8039 68.5049 60.8039C67.6831 60.8039 67.0145 60.1353 67.0145 59.3135C67.0145 58.4917 67.6831 57.8231 68.5049 57.8231C69.3267 57.8231 69.9953 58.4918 69.9953 59.3135Z" fill="#72F34B"/>
<path d="M53.6018 59.3135C53.6018 61.505 55.3847 63.2879 57.5762 63.2879C59.7677 63.2879 61.5506 61.505 61.5506 59.3135C61.5506 57.122 59.7677 55.3391 57.5762 55.3391C55.3847 55.3391 53.6018 57.1221 53.6018 59.3135ZM59.0666 59.3135C59.0666 60.1353 58.398 60.8039 57.5762 60.8039C56.7544 60.8039 56.0858 60.1353 56.0858 59.3135C56.0858 58.4917 56.7544 57.8231 57.5762 57.8231C58.398 57.8231 59.0666 58.4918 59.0666 59.3135Z" fill="#72F34B"/>
<path d="M40.7239 52.1099C38.7502 52.1099 37.13 53.6524 37.0056 55.5952C35.0628 55.7197 33.5203 57.3398 33.5203 59.3135C33.5203 61.2871 35.0628 62.9073 37.0056 63.0318C37.1301 64.9745 38.7502 66.5171 40.7239 66.5171C42.6975 66.5171 44.3177 64.9745 44.4422 63.0318C46.3849 62.9073 47.9275 61.2871 47.9275 59.3135C47.9275 57.3398 46.3849 55.7197 44.4422 55.5952C44.3176 53.6523 42.6974 52.1099 40.7239 52.1099ZM45.4435 59.3133C45.4435 59.9982 44.8863 60.5553 44.2015 60.5553H43.2079C42.5219 60.5553 41.9659 61.1114 41.9659 61.7973V62.7909C41.9659 63.4758 41.4087 64.0329 40.7239 64.0329C40.039 64.0329 39.4819 63.4758 39.4819 62.7909V61.7973C39.4819 61.1114 38.9258 60.5553 38.2399 60.5553H37.2463C36.5614 60.5553 36.0043 59.9982 36.0043 59.3133C36.0043 58.6285 36.5614 58.0713 37.2463 58.0713H38.2399C38.9258 58.0713 39.4819 57.5153 39.4819 56.8293V55.8357C39.4819 55.1509 40.039 54.5937 40.7239 54.5937C41.4087 54.5937 41.9659 55.1509 41.9659 55.8357V56.8293C41.9659 57.5153 42.5219 58.0713 43.2079 58.0713H44.2015C44.8863 58.0713 45.4435 58.6285 45.4435 59.3133Z" fill="#72F34B"/>
<path d="M78.7153 62.4549C78.7153 62.7828 78.8482 63.102 79.0792 63.3342C79.3103 63.5653 79.6295 63.6982 79.9573 63.6982C80.284 63.6982 80.6044 63.5653 80.8354 63.3342C81.0665 63.102 81.1994 62.7828 81.1994 62.4549C81.1994 62.1283 81.0665 61.8078 80.8354 61.5768C80.6044 61.3458 80.284 61.2129 79.9573 61.2129C79.6295 61.2129 79.3103 61.3458 79.0792 61.5768C78.8482 61.8078 78.7153 62.1284 78.7153 62.4549Z" fill="#72F34B"/>
</g>
<defs>
<radialGradient id="paint0_radial" cx="0" cy="0" r="1" gradientUnits="userSpaceOnUse" gradientTransform="translate(53 53) rotate(90) scale(53)">
<stop stop-color="#1C4612"/>
<stop offset="1" stop-color="#1C4612" stop-opacity="0"/>
</radialGradient>
<clipPath id="clip0">
<rect width="63.6" height="63.6" fill="white" transform="translate(21.1997 21.1997)"/>
</clipPath>
</defs>
</svg>
