<svg width="240" height="34" viewBox="0 0 240 34" fill="none" xmlns="http://www.w3.org/2000/svg">
<path d="M30.0806 21.2372H15.4922C15.1049 21.2372 14.9112 21.0435 14.9112 20.6562V12.9101C14.9112 12.4798 15.1049 12.2646 15.4922 12.2646H34.7283C35.4168 12.2646 36.0838 12.4368 36.7294 12.781C37.4179 13.0823 38.0204 13.5126 38.5368 14.0721C39.0962 14.6315 39.5265 15.2555 39.8278 15.944C40.1721 16.6326 40.3442 17.3211 40.3442 18.0096V27.4986C40.3442 28.2302 40.1721 28.9402 39.8278 29.6288C39.5265 30.2743 39.0962 30.8768 38.5368 31.4362C38.0204 31.9526 37.4179 32.3829 36.7294 32.7272C36.0838 33.0284 35.4168 33.1791 34.7283 33.1791H5.68046C4.99192 33.1791 4.30338 33.0284 3.61484 32.7272C2.96933 32.3829 2.36686 31.9526 1.80742 31.4362C1.29101 30.8768 0.860676 30.2743 0.516406 29.6288C0.172135 28.9402 0 28.2302 0 27.4986V6.06776C0 5.37922 0.172135 4.69068 0.516406 4.00214C0.860676 3.3136 1.29101 2.71113 1.80742 2.19472C2.36686 1.63528 2.96933 1.20494 3.61484 0.90371C4.30338 0.559439 4.99192 0.387303 5.68046 0.387303H39.7632C40.1505 0.387303 40.3442 0.580955 40.3442 0.96826V9.48895C40.3442 9.87626 40.1505 10.0699 39.7632 10.0699H10.3281V23.4319H30.0806V21.2372Z" fill="#72F34B"/>
<path d="M73.4027 11.5546C73.4027 11.2103 73.1445 11.0382 72.6281 11.0382C72.2838 11.0382 71.8965 11.2318 71.4662 11.6191C71.0789 11.9634 70.7131 12.3292 70.3688 12.7165L70.4334 12.6519L65.1402 19.107H73.4027V11.5546ZM83.6663 8.13339V32.5336C83.6663 32.9639 83.4726 33.1791 83.0853 33.1791H74.0482C73.6179 33.1791 73.4027 32.9639 73.4027 32.5336V27.9505H58.4915L54.5539 32.9209C54.5109 33.093 54.3387 33.1791 54.0375 33.1791H43.4512C43.15 33.1791 42.9563 33.0715 42.8702 32.8563C42.7842 32.5981 42.8057 32.3614 42.9348 32.1462L65.0757 2.71113C66.1515 1.85045 67.5286 1.24798 69.2069 0.90371C70.8852 0.559439 72.6281 0.387303 74.4355 0.387303C75.8126 0.387303 77.0606 0.516404 78.1795 0.774606C79.3414 0.989776 80.3096 1.3986 81.0843 2.00107C81.9019 2.60354 82.5259 3.39967 82.9562 4.38945C83.4296 5.37922 83.6663 6.6272 83.6663 8.13339Z" fill="#72F34B"/>
<path d="M98.691 33.1791H89.6539C89.2235 33.1791 89.0084 32.9639 89.0084 32.5336V4.9704C89.0084 4.41096 89.159 3.85152 89.4602 3.29208C89.7614 2.73265 90.1703 2.23776 90.6867 1.80742C91.2461 1.37708 91.8701 1.03281 92.5586 0.774606C93.2472 0.516404 93.9788 0.387303 94.7534 0.387303H97.2708C98.5188 0.516405 99.7238 0.96826 100.886 1.74287C102.048 2.47444 102.973 3.39967 103.661 4.51855L113.086 20.1398L122.575 4.51855C123.263 3.39967 124.167 2.47444 125.286 1.74287C126.448 0.96826 127.653 0.516405 128.901 0.387303H131.418C132.193 0.387303 132.924 0.516404 133.613 0.774606C134.344 1.03281 134.968 1.37708 135.485 1.80742C136.044 2.23776 136.475 2.73265 136.776 3.29208C137.077 3.85152 137.228 4.41096 137.228 4.9704V32.5336C137.228 32.9639 137.013 33.1791 136.582 33.1791H127.545C127.115 33.1791 126.9 32.9639 126.9 32.5336V17.2996C125.092 20.312 123.414 22.9585 121.865 25.2393C120.358 27.4771 119.197 29.1554 118.379 30.2743C117.432 31.5223 116.55 32.3184 115.732 32.6627C114.915 33.0069 114.269 33.1791 113.796 33.1791H112.44C111.666 33.1791 110.934 33.0069 110.246 32.6627C109.6 32.3184 108.804 31.5223 107.857 30.2743C106.996 29.1554 105.792 27.4771 104.242 25.2393C102.736 22.9585 101.079 20.312 99.2719 17.2996V32.5336C99.2719 32.9639 99.0783 33.1791 98.691 33.1791Z" fill="#72F34B"/>
<path d="M172.313 12.2646H155.723C155.336 12.2646 155.142 12.4798 155.142 12.9101V20.6562C155.142 21.0435 155.336 21.2372 155.723 21.2372H176.96C177.649 21.2372 178.316 21.0866 178.961 20.7853C179.65 20.4411 180.252 20.0107 180.769 19.4943C181.328 18.9349 181.758 18.3324 182.06 17.6869C182.404 16.9984 182.576 16.2883 182.576 15.5567V6.06776C182.576 5.37922 182.404 4.69068 182.06 4.00214C181.758 3.3136 181.328 2.71113 180.769 2.19472C180.252 1.63528 179.65 1.20494 178.961 0.90371C178.316 0.559439 177.649 0.387303 176.96 0.387303H148.3C147.611 0.387303 146.923 0.559439 146.234 0.90371C145.589 1.20494 144.986 1.63528 144.427 2.19472C143.91 2.71113 143.48 3.3136 143.136 4.00214C142.791 4.69068 142.619 5.37922 142.619 6.06776V27.4986C142.619 28.2302 142.791 28.9402 143.136 29.6288C143.48 30.2743 143.91 30.8768 144.427 31.4362C144.986 31.9526 145.589 32.3829 146.234 32.7272C146.923 33.0284 147.611 33.1791 148.3 33.1791H181.995C182.382 33.1791 182.576 32.9639 182.576 32.5336V24.0774C182.576 23.6471 182.382 23.4319 181.995 23.4319H152.947V10.0699H172.313V12.2646Z" fill="#72F34B"/>
<path d="M188.687 31.9526H197.466V20.3335H223.028V12.8456H197.466V9.48895H223.092V1.22646H193.528C192.926 1.22646 192.345 1.37708 191.785 1.67832C191.226 1.93652 190.709 2.30231 190.236 2.77568C189.763 3.24905 189.375 3.78697 189.074 4.38945C188.816 4.99192 188.687 5.59439 188.687 6.19687V31.9526ZM197.466 33.1791H188.687C187.869 33.1791 187.46 32.7702 187.46 31.9526V6.19687C187.46 5.42226 187.632 4.66917 187.977 3.93759C188.364 3.20602 188.837 2.56051 189.397 2.00107C189.999 1.3986 190.645 0.925226 191.333 0.580957C192.065 0.193652 192.796 0 193.528 0H223.092C223.91 0 224.319 0.40882 224.319 1.22646V9.48895C224.319 10.3066 223.91 10.7154 223.092 10.7154H198.692V11.6191H223.028C223.845 11.6191 224.254 12.0279 224.254 12.8456V20.3335C224.254 21.1511 223.845 21.5599 223.028 21.5599H198.692V31.9526C198.692 32.7702 198.283 33.1791 197.466 33.1791Z" fill="#72F34B"/>
<path d="M238.838 31.9526V1.93652H230.124V31.9526H238.838ZM240 1.93652V31.9526C240 32.7702 239.613 33.1791 238.838 33.1791H230.124C229.349 33.1791 228.962 32.7702 228.962 31.9526V1.93652C228.962 1.11888 229.349 0.710056 230.124 0.710056H238.838C239.613 0.710056 240 1.11888 240 1.93652Z" fill="#72F34B"/>
</svg>
