<svg width="80" height="81" viewBox="0 0 80 81" fill="none" xmlns="http://www.w3.org/2000/svg">
<rect y="0.806641" width="80" height="80" fill="url(#paint0_radial)"/>
<g clip-path="url(#clip0)">
<path d="M64.5145 27.4028C64.5145 25.0506 62.6011 23.1372 60.2489 23.1372C59.0412 23.1372 57.9498 23.6426 57.173 24.4519L40.5267 14.8411C40.2124 14.6598 39.8256 14.6598 39.5114 14.8411L22.8646 24.4519C22.0878 23.6426 20.9968 23.1372 19.7892 23.1372C17.437 23.1372 15.5236 25.0506 15.5236 27.4028C15.5236 29.4047 16.9101 31.088 18.7736 31.5451V50.7599C18.7736 51.1225 18.9672 51.4577 19.2814 51.6394L35.9226 61.2474C35.8123 61.6259 35.752 62.0258 35.752 62.4396C35.752 64.7914 37.6654 66.7052 40.0177 66.7052C42.3695 66.7052 44.2829 64.7914 44.2829 62.4396C44.2829 62.0262 44.223 61.6271 44.1127 61.2486L60.7567 51.6394C61.0709 51.4581 61.2645 51.1225 61.2645 50.7599V31.5451C63.1279 31.088 64.5145 29.4047 64.5145 27.4028ZM17.5548 27.4028C17.5548 26.1706 18.557 25.1684 19.7892 25.1684C21.021 25.1684 22.0232 26.1706 22.0232 27.4028C22.0232 28.6346 21.021 29.6372 19.7892 29.6372C18.557 29.6372 17.5548 28.6346 17.5548 27.4028ZM40.0177 64.674C38.7854 64.674 37.7833 63.6718 37.7833 62.4396C37.7833 61.2077 38.7854 60.2052 40.0177 60.2052C41.2495 60.2052 42.252 61.2077 42.252 62.4396C42.252 63.6718 41.2495 64.674 40.0177 64.674ZM43.0955 59.4907C42.3183 58.6802 41.2265 58.1739 40.0177 58.1739C38.8096 58.1739 37.7178 58.6798 36.941 59.4895L20.8048 50.1735V31.5451C22.6679 31.088 24.0544 29.4047 24.0544 27.4028C24.0544 26.9886 23.9941 26.5883 23.8834 26.209L40.0188 16.8934L56.1546 26.209C56.0439 26.5883 55.9836 26.9882 55.9836 27.4028C55.9836 29.4047 57.3702 31.088 59.2333 31.5451V50.1735L43.0955 59.4907ZM60.2489 29.6372C59.017 29.6372 58.0145 28.6346 58.0145 27.4028C58.0145 26.1706 59.017 25.1684 60.2489 25.1684C61.4811 25.1684 62.4833 26.1706 62.4833 27.4028C62.4833 28.6346 61.4811 29.6372 60.2489 29.6372Z" fill="#72F34B"/>
<path d="M53.9329 30.4605L40.5266 22.7207C40.2124 22.5394 39.8256 22.5394 39.5114 22.7207L26.1051 30.4605C25.7909 30.6422 25.5973 30.9774 25.5973 31.34V46.82C25.5973 47.1826 25.7909 47.5183 26.1051 47.6996L39.5114 55.4398C39.6685 55.5302 39.8435 55.5758 40.0188 55.5758C40.1946 55.5758 40.3695 55.5302 40.5266 55.4398L53.9329 47.6996C54.2471 47.5183 54.4407 47.1826 54.4407 46.82V31.34C54.4407 30.9774 54.2471 30.6422 53.9329 30.4605ZM40.0188 24.7729L51.3938 31.34L40.0188 37.9075L28.6442 31.34L40.0188 24.7729ZM41.0344 52.8011V48.2209C41.0344 47.6599 40.5798 47.2052 40.0188 47.2052C39.4582 47.2052 39.0036 47.6599 39.0036 48.2209V52.8011L27.6285 46.2336V33.0991L39.5114 39.9598C39.6685 40.0502 39.8435 40.0958 40.0188 40.0958C40.1946 40.0958 40.3695 40.0502 40.5266 39.9598L52.4095 33.0991V46.2336L41.0344 52.8011Z" fill="#72F34B"/>
<path d="M40.0174 42.6347C39.7492 42.6347 39.4882 42.743 39.2982 42.9322C39.1093 43.1211 39.0006 43.3829 39.0006 43.6503C39.0006 43.9173 39.1093 44.1791 39.2982 44.368C39.4882 44.5572 39.7492 44.6659 40.0174 44.6659C40.2844 44.6659 40.5467 44.5572 40.7355 44.368C40.9244 44.1791 41.0331 43.9173 41.0331 43.6503C41.0331 43.3829 40.9244 43.1211 40.7355 42.9322C40.5467 42.743 40.2844 42.6347 40.0174 42.6347Z" fill="#72F34B"/>
</g>
<defs>
<radialGradient id="paint0_radial" cx="0" cy="0" r="1" gradientUnits="userSpaceOnUse" gradientTransform="translate(40 40.8066) rotate(90) scale(40)">
<stop stop-color="#1C4612"/>
<stop offset="1" stop-color="#1C4612" stop-opacity="0"/>
</radialGradient>
<clipPath id="clip0">
<rect width="52" height="52" fill="white" transform="translate(14 14.8066)"/>
</clipPath>
</defs>
</svg>
