<svg width="106" height="106" viewBox="0 0 106 106" fill="none" xmlns="http://www.w3.org/2000/svg">
<rect width="106" height="106" fill="url(#paint0_radial)"/>
<g clip-path="url(#clip0)">
<path d="M22.4497 84.6145C23.1399 84.6145 23.6994 84.055 23.6994 83.3649C23.6994 82.6747 23.1399 82.1152 22.4497 82.1152C21.7596 82.1152 21.2001 82.6747 21.2001 83.3649C21.2001 84.055 21.7596 84.6145 22.4497 84.6145Z" fill="#72F34B"/>
<path d="M54.3674 52.9186C55.0562 52.9186 55.6146 52.3603 55.6146 51.6715C55.6146 50.9827 55.0562 50.4243 54.3674 50.4243C53.6786 50.4243 53.1202 50.9827 53.1202 51.6715C53.1202 52.3603 53.6786 52.9186 54.3674 52.9186Z" fill="#72F34B"/>
<path d="M70.6991 35.8614C69.6966 34.8587 68.3636 34.3066 66.9457 34.3066C65.5279 34.3066 64.1948 34.8589 63.1923 35.8614C61.1227 37.9311 61.1227 41.2987 63.1923 43.3683C64.2273 44.4032 65.5863 44.9204 66.9457 44.9204C68.3048 44.9204 69.6644 44.4029 70.6991 43.3683C72.7687 41.2986 72.7687 37.931 70.6991 35.8614ZM68.9356 41.6045C67.8384 42.7016 66.053 42.7016 64.956 41.6045C63.8588 40.5074 63.8588 38.7221 64.956 37.6249C65.4875 37.0934 66.1941 36.8007 66.9457 36.8007C67.6974 36.8007 68.4039 37.0934 68.9355 37.6249C70.0327 38.7221 70.0327 40.5074 68.9356 41.6045Z" fill="#72F34B"/>
<path d="M36.7788 72.3094C36.1622 72.0023 35.4136 72.2534 35.1066 72.8699L33.6212 75.853C32.9752 77.15 31.6761 78.0173 30.2305 78.1162L28.5028 78.2344C28.2108 78.2539 28.0188 78.1084 27.9299 78.0196C27.8411 77.9308 27.6953 77.7384 27.7152 77.4466L27.8334 75.7191C27.9324 74.2736 28.7997 72.9743 30.0966 72.3284L33.0796 70.843C33.6962 70.5359 33.9471 69.7873 33.64 69.1708C33.3331 68.5543 32.5844 68.3032 31.9678 68.6103L28.9848 70.0957C26.8989 71.1344 25.5042 73.2238 25.3449 75.5487L25.2267 77.2762C25.1628 78.2087 25.5052 79.1224 26.166 79.7833C26.7745 80.3917 27.5974 80.7303 28.452 80.7303C28.5254 80.7303 28.5994 80.7279 28.6731 80.7228L30.4008 80.6045C32.7257 80.4454 34.815 79.0508 35.8537 76.9646L37.3392 73.9816C37.6462 73.365 37.3953 72.6165 36.7788 72.3094Z" fill="#72F34B"/>
<path d="M83.9397 22.216C83.3545 21.6395 82.5483 21.338 81.7295 21.3913L80.5683 21.4653C70.1564 22.13 60.4123 27.1558 53.8345 35.2541L51.1012 38.6191L43.9483 38.409C43.9361 38.4087 43.9238 38.4086 43.9117 38.4086C38.2389 38.4086 32.9056 40.6177 28.8942 44.6289L21.568 51.9553C21.2195 52.3037 21.1089 52.8248 21.2858 53.2846C21.4626 53.7446 21.8937 54.0574 22.3858 54.0825L37.8938 54.8792L37.2616 55.6577C36.9429 56.0501 36.8925 56.596 37.1341 57.0399C37.3771 57.4866 37.6317 57.9262 37.8973 58.3587L34.2197 62.7247C33.9053 63.0979 33.8376 63.6204 34.0461 64.0616C34.8495 65.7591 35.9156 67.2843 37.2155 68.5948C38.5469 69.9373 40.1037 71.0352 41.8425 71.8581C42.0124 71.9386 42.1947 71.978 42.3758 71.978C42.6566 71.978 42.9351 71.8831 43.1617 71.6994C43.954 71.0567 44.8674 70.2943 45.7508 69.5572C46.3805 69.0318 47.0247 68.4943 47.6268 67.9986C47.9861 68.2149 48.35 68.4246 48.7193 68.6254C48.9061 68.7271 49.1109 68.7771 49.315 68.7771C49.5866 68.7771 49.8564 68.6887 50.0797 68.5153L50.9297 67.8557L51.73 83.429C51.7553 83.9212 52.068 84.3522 52.5278 84.5291C52.6734 84.585 52.8247 84.6123 52.975 84.6123C53.2998 84.6123 53.6188 84.4852 53.8571 84.2469L61.1834 76.9205C65.1948 72.9091 67.4038 67.5759 67.4038 61.903V55.0715L70.294 52.8288C78.9557 46.1073 84.2309 35.9717 84.767 25.0208L84.7967 24.4139C84.8372 23.5936 84.5247 22.7926 83.9397 22.216ZM25.3149 51.7356L30.6578 46.3927C34.1937 42.8568 38.8939 40.9076 43.8937 40.9027L49.1215 41.0563L39.8411 52.4819L25.3149 51.7356ZM44.1529 67.6421C43.5018 68.1852 42.8344 68.7422 42.215 69.2516C41.0171 68.6028 39.9334 67.7933 38.9863 66.8383C38.0691 65.9135 37.2884 64.8605 36.6588 63.7005L39.3514 60.504C40.1655 61.5963 41.0567 62.6309 42.0194 63.6002C42.0201 63.6009 42.0209 63.6015 42.0216 63.6023C42.0219 63.6025 42.0221 63.6029 42.0224 63.6031C42.0227 63.6035 42.0231 63.6038 42.0235 63.6041C43.0909 64.6784 44.2391 65.6642 45.457 66.5557C45.027 66.9127 44.5864 67.2804 44.1529 67.6421ZM64.91 61.903C64.91 66.9096 62.9604 71.6165 59.42 75.1569L54.0771 80.4998L53.3315 65.992L64.9098 57.0072V61.903H64.91ZM82.2762 24.899C81.7757 35.1218 76.8511 44.5836 68.7652 50.8583L49.2057 66.0365C47.5837 65.0887 46.0718 63.9696 44.6881 62.7017L51.2824 56.1074C51.7693 55.6205 51.7693 54.8307 51.2824 54.3436C50.7953 53.8565 50.0057 53.8565 49.5186 54.3436L42.9305 60.9317C41.7193 59.5907 40.6465 58.1317 39.7331 56.5711L55.7706 36.8266C61.911 29.2668 71.0073 24.575 80.727 23.9547L81.8882 23.8806C82.0404 23.8712 82.1423 23.9467 82.1892 23.9929C82.236 24.039 82.3134 24.1393 82.306 24.2922L82.2762 24.899Z" fill="#72F34B"/>
</g>
<defs>
<radialGradient id="paint0_radial" cx="0" cy="0" r="1" gradientUnits="userSpaceOnUse" gradientTransform="translate(53 53) rotate(90) scale(53)">
<stop stop-color="#1C4612"/>
<stop offset="1" stop-color="#1C4612" stop-opacity="0"/>
</radialGradient>
<clipPath id="clip0">
<rect width="63.6" height="63.6" fill="white" transform="translate(21.2001 21.1997)"/>
</clipPath>
</defs>
</svg>
