<svg width="180" height="180" viewBox="0 0 180 180" fill="none" xmlns="http://www.w3.org/2000/svg">
<g clip-path="url(#clip0)">
<rect width="180" height="180" fill="#161616"/>
<path d="M72.6436 97.6368H49.5375C48.9241 97.6368 48.6173 97.3301 48.6173 96.7167V84.4479C48.6173 83.7663 48.9241 83.4255 49.5375 83.4255H80.0049C81.0954 83.4255 82.1519 83.6982 83.1743 84.2434C84.2649 84.7206 85.2191 85.4021 86.037 86.2882C86.9231 87.1743 87.6047 88.1626 88.0818 89.2532C88.6271 90.3437 88.8997 91.4343 88.8997 92.5248V107.554C88.8997 108.713 88.6271 109.837 88.0818 110.928C87.6047 111.95 86.9231 112.905 86.037 113.791C85.2191 114.609 84.2649 115.29 83.1743 115.835C82.1519 116.313 81.0954 116.551 80.0049 116.551H33.9971C32.9065 116.551 31.816 116.313 30.7254 115.835C29.703 115.29 28.7488 114.609 27.8627 113.791C27.0448 112.905 26.3632 111.95 25.8179 110.928C25.2726 109.837 25 108.713 25 107.554V73.6105C25 72.52 25.2726 71.4294 25.8179 70.3389C26.3632 69.2483 27.0448 68.2941 27.8627 67.4761C28.7488 66.5901 29.703 65.9085 30.7254 65.4314C31.816 64.8861 32.9065 64.6134 33.9971 64.6134H87.9796C88.593 64.6134 88.8997 64.9202 88.8997 65.5336V79.0292C88.8997 79.6427 88.593 79.9494 87.9796 79.9494H41.3583V101.113H72.6436V97.6368Z" fill="#72F34B"/>
<path d="M98.5638 114.609H112.468V96.2055H152.955V84.3457H112.468V79.0292H153.057V65.9425H106.232C105.277 65.9425 104.357 66.1811 103.471 66.6582C102.585 67.0672 101.767 67.6465 101.018 68.3963C100.268 69.1461 99.6543 69.9981 99.1772 70.9523C98.7682 71.9065 98.5638 72.8608 98.5638 73.815V114.609ZM112.468 116.551H98.5638C97.2687 116.551 96.6212 115.904 96.6212 114.609V73.815C96.6212 72.5881 96.8938 71.3953 97.4391 70.2366C98.0526 69.0779 98.8023 68.0555 99.6884 67.1694C100.643 66.2152 101.665 65.4654 102.756 64.9202C103.914 64.3067 105.073 64 106.232 64H153.057C154.352 64 155 64.6475 155 65.9425V79.0292C155 80.3243 154.352 80.9718 153.057 80.9718H114.411V82.4031H152.955C154.25 82.4031 154.898 83.0506 154.898 84.3457V96.2055C154.898 97.5005 154.25 98.148 152.955 98.148H114.411V114.609C114.411 115.904 113.763 116.551 112.468 116.551Z" fill="#72F34B"/>
</g>
<defs>
<clipPath id="clip0">
<rect width="180" height="180" rx="90" fill="white"/>
</clipPath>
</defs>
</svg>
